{"title":"Damian Jr. Gong Marley - Affairs Of The Heart [Music Video] 1080","uid":8838130,"size":137255197,"categoryP":"video","categoryS":"music_videos","magnet":"?xt=urn:btih:8822fa804db621dd3571f5580dd43e79f895e4b0&amp;dn=Damian+Jr.+Gong+Marley+-+Affairs+Of+The+Heart+%5BMusic+Video%5D+1080&amp;tr=udp%3A%2F%2Ftracker.openbittorrent.com%3A80&amp;tr=udp%3A%2F%2Fopen.demonii.com%3A1337&amp;tr=udp%3A%2F%2Ftracker.coppersurfer.tk%3A6969&amp;tr=udp%3A%2F%2Fexodus.desync.com%3A6969","seeders":2,"leechers":3,"uploader":"Sbyky","files":-1,"time":1377178157,"description":"[IMG]http://yuq.me/users/18/139/OlWzgSuX2w.png[/IMG]\n\nGeneral\nComplete name                            : Damian Jr. Gong Marley - Affairs Of The Heart [Music Video] 1080p [Sbyky].mp4\nFormat                                   : MPEG-4\nFormat profile                           : Base Media / Version 2\nCodec ID                                 : mp42\nFile size                                : 131 MiB\nDuration                                 : 4mn 9s\nOverall bit rate mode                    : Variable\nOverall bit rate                         : 4 408 Kbps\nEncoded date                             : UTC 2012-02-12 22:02:42\nTagged date                              : UTC 2012-02-12 22:02:42\n\nVideo\nID                                       : 1\nFormat                                   : AVC\nFormat/Info                              : Advanced Video Codec\nFormat profile                           : &lt;a class=&quot;__cf_email__&quot; href=&quot;/cdn-cgi/l/email-protection&quot; data-cfemail=&quot;165e7f717e565a223826&quot;&gt;[email&amp;#160;protected]&lt;/a&gt;&lt;script cf-hash='f9e31' type=&quot;text/javascript&quot;&gt;\n/* &lt;![CDATA[ */!function(){try{var t=&quot;currentScript&quot;in document?document.currentScript:function(){for(var t=document.getElementsByTagName(&quot;script&quot;),e=t.length;e--;)if(t[e].getAttribute(&quot;cf-hash&quot;))return t[e]}();if(t&amp;&amp;t.previousSibling){var e,r,n,i,c=t.previousSibling,a=c.getAttribute(&quot;data-cfemail&quot;);if(a){for(e=&quot;&quot;,r=parseInt(a.substr(0,2),16),n=2;a.length-n;n+=2)i=parseInt(a.substr(n,2),16)^r,e+=String.fromCharCode(i);e=document.createTextNode(e),c.parentNode.replaceChild(e,c)}}}catch(u){}}();/* ]]&gt; */&lt;/script&gt;\nFormat settings, CABAC                   : Yes\nFormat settings, ReFrames                : 1 frame\nCodec ID                                 : avc1\nCodec ID/Info                            : Advanced Video Coding\nDuration                                 : 4mn 9s\nBit rate                                 : 4 254 Kbps\nMaximum bit rate                         : 12.0 Mbps\nWidth                                    : 1 920 pixels\nHeight                                   : 1 080 pixels\nDisplay aspect ratio                     : 16:9\nFrame rate mode                          : Constant\nFrame rate                               : 23.976 fps\nColor space                              : YUV\nChroma subsampling                       : 4:2:0\nBit depth                                : 8 bits\nScan type                                : Progressive\nBits/(Pixel*Frame)                       : 0.086\nStream size                              : 126 MiB (96%)\nTagged date                              : UTC 2012-02-12 22:02:42\n\nAudio\nID                                       : 2\nFormat                                   : AAC\nFormat/Info                              : Advanced Audio Codec\nFormat profile                           : LC\nCodec ID                                 : 40\nDuration                                 : 4mn 9s\nBit rate mode                            : Variable\nBit rate                                 : 152 Kbps\nMaximum bit rate                         : 179 Kbps\nChannel(s)                               : 2 channels\nChannel positions                        : Front: L R\nSampling rate                            : 44.1 KHz\nCompression mode                         : Lossy\nStream size                              : 4.51 MiB (3%)\nTitle                                    : IsoMedia File Produced by Google, 5-11-2011\nEncoded date                             : UTC 2012-02-12 22:02:42\nTagged date                              : UTC 2012-02-12 22:02:42\n\nShared By Sbyky\n[IMG]http://yuq.me/users/18/139/0aq32UMZvX.gif[/IMG]\n[IMG]http://yuq.me/users/18/139/bQg62viaEG.gif[/IMG]","torrent":{"xt":"urn:btih:8822fa804db621dd3571f5580dd43e79f895e4b0","amp;dn":"Damian+Jr.+Gong+Marley+-+Affairs+Of+The+Heart+%5BMusic+Video%5D+1080","amp;tr":["udp%3A%2F%2Ftracker.openbittorrent.com%3A80","udp%3A%2F%2Fopen.demonii.com%3A1337","udp%3A%2F%2Ftracker.coppersurfer.tk%3A6969","udp%3A%2F%2Fexodus.desync.com%3A6969"],"infoHash":"8822fa804db621dd3571f5580dd43e79f895e4b0","infoHashBuffer":{"type":"Buffer","data":[136,34,250,128,77,182,33,221,53,113,245,88,13,212,62,121,248,149,228,176]},"announce":[],"urlList":[]}}